<?xml version="1.0" encoding="UTF-8"?>
<!DOCTYPE svg PUBLIC "-//W3C//DTD SVG 1.1//EN" "http://www.w3.org/Graphics/SVG/1.1/DTD/svg11.dtd">
<!-- Creator: CorelDRAW X8 -->
<svg xmlns="http://www.w3.org/2000/svg" xml:space="preserve" width="1465px" height="1465px" version="1.1" style="shape-rendering:geometricPrecision; text-rendering:geometricPrecision; image-rendering:optimizeQuality; fill-rule:evenodd; clip-rule:evenodd"
viewBox="0 0 1465 1465"
 xmlns:xlink="http://www.w3.org/1999/xlink">
 <defs>
  <style type="text/css">
   <![CDATA[
    .fil0 {fill:#61A8DE}
   ]]>
  </style>
 </defs>
 <g id="Слой_x0020_1">
  <metadata id="CorelCorpID_0Corel-Layer"/>
  <path class="fil0" d="M1305 184l-1198 470c-41,14 -38,69 3,81l305 89 112 363c12,37 61,49 87,20l158 -161 308 227c38,26 92,6 101,-40l204 -977c12,-49 -37,-89 -80,-72l0 0zm-150 219l-559 493c-5,3 -8,11 -8,17l-21 190c-2,6 -11,9 -11,3l-89 -285c-3,-12 0,-26 11,-35l660 -406c14,-8 29,12 17,23l0 0z"/>
 </g>
</svg>
